<?xml version="1.0" encoding="UTF-8"?>
<svg xmlns="http://www.w3.org/2000/svg" xmlns:xlink="http://www.w3.org/1999/xlink" width="200pt" height="68pt" viewBox="0 0 200 68" version="1.2">
<defs>
<clipPath id="clip1">
  <path d="M 0 0.414063 C 65.191406 13.804688 135.167969 14.421875 199.371094 0.414063 L 198.566406 20.238281 C 192.742188 22.578125 188.628906 28.28125 188.628906 34.941406 C 188.628906 41.144531 192.199219 46.519531 197.394531 49.117188 L 198.59375 68 C 132.261719 60.996094 67.109375 60.996094 0.777344 68 L 1.980469 49.117188 C 7.175781 46.519531 10.746094 41.144531 10.746094 34.941406 C 10.746094 28.28125 6.632813 22.578125 0.804688 20.238281 Z M 0 0.414063 "/>
</clipPath>
<clipPath id="clip2">
  <path d="M 0 0.414063 C 65.191406 13.804688 135.167969 14.421875 199.371094 0.414063 L 198.566406 20.238281 C 192.742188 22.578125 188.628906 28.28125 188.628906 34.941406 C 188.628906 41.144531 192.199219 46.519531 197.394531 49.117188 L 198.59375 68 C 132.261719 60.996094 67.109375 60.996094 0.777344 68 L 1.980469 49.117188 C 7.175781 46.519531 10.746094 41.144531 10.746094 34.941406 C 10.746094 28.28125 6.632813 22.578125 0.804688 20.238281 L 0 0.414063 "/>
</clipPath>
<linearGradient id="linear0" gradientUnits="userSpaceOnUse" x1="-0.271617" y1="0" x2="0.91908" y2="0" gradientTransform="matrix(-0.00000732,-56.76,-167.442,0.00000248,99.5615,52.583)">
<stop offset="0" style="stop-color:rgb(95.845032%,45.324707%,16.456604%);stop-opacity:1;"/>
<stop offset="0.125" style="stop-color:rgb(95.845032%,45.324707%,16.456604%);stop-opacity:1;"/>
<stop offset="0.1875" style="stop-color:rgb(95.845032%,45.324707%,16.456604%);stop-opacity:1;"/>
<stop offset="0.21875" style="stop-color:rgb(95.845032%,45.324707%,16.456604%);stop-opacity:1;"/>
<stop offset="0.234375" style="stop-color:rgb(95.845032%,45.324707%,16.456604%);stop-opacity:1;"/>
<stop offset="0.242187" style="stop-color:rgb(95.851135%,45.394897%,16.506958%);stop-opacity:1;"/>
<stop offset="0.25" style="stop-color:rgb(95.864868%,45.561218%,16.625977%);stop-opacity:1;"/>
<stop offset="0.257813" style="stop-color:rgb(95.881653%,45.751953%,16.764832%);stop-opacity:1;"/>
<stop offset="0.265625" style="stop-color:rgb(95.896912%,45.944214%,16.905212%);stop-opacity:1;"/>
<stop offset="0.273438" style="stop-color:rgb(95.913696%,46.136475%,17.044067%);stop-opacity:1;"/>
<stop offset="0.28125" style="stop-color:rgb(95.930481%,46.328735%,17.185974%);stop-opacity:1;"/>
<stop offset="0.289063" style="stop-color:rgb(95.94574%,46.520996%,17.327881%);stop-opacity:1;"/>
<stop offset="0.296875" style="stop-color:rgb(95.962524%,46.713257%,17.468262%);stop-opacity:1;"/>
<stop offset="0.304688" style="stop-color:rgb(95.977783%,46.903992%,17.640686%);stop-opacity:1;"/>
<stop offset="0.308594" style="stop-color:rgb(95.994568%,47.091675%,17.89093%);stop-opacity:1;"/>
<stop offset="0.3125" style="stop-color:rgb(96.002197%,47.183228%,18.040466%);stop-opacity:1;"/>
<stop offset="0.320313" style="stop-color:rgb(96.009827%,47.279358%,18.136597%);stop-opacity:1;"/>
<stop offset="0.328125" style="stop-color:rgb(96.026611%,47.470093%,18.305969%);stop-opacity:1;"/>
<stop offset="0.335938" style="stop-color:rgb(96.04187%,47.663879%,18.452454%);stop-opacity:1;"/>
<stop offset="0.34375" style="stop-color:rgb(96.058655%,47.859192%,18.598938%);stop-opacity:1;"/>
<stop offset="0.351563" style="stop-color:rgb(96.073914%,48.051453%,18.745422%);stop-opacity:1;"/>
<stop offset="0.355469" style="stop-color:rgb(96.090698%,48.243713%,18.946838%);stop-opacity:1;"/>
<stop offset="0.359375" style="stop-color:rgb(96.098328%,48.338318%,19.075012%);stop-opacity:1;"/>
<stop offset="0.363281" style="stop-color:rgb(96.105957%,48.431396%,19.2276%);stop-opacity:1;"/>
<stop offset="0.367188" style="stop-color:rgb(96.113586%,48.524475%,19.381714%);stop-opacity:1;"/>
<stop offset="0.375" style="stop-color:rgb(96.122742%,48.622131%,19.456482%);stop-opacity:1;"/>
<stop offset="0.382813" style="stop-color:rgb(96.138%,48.815918%,19.607544%);stop-opacity:1;"/>
<stop offset="0.390625" style="stop-color:rgb(96.154785%,49.01123%,19.758606%);stop-opacity:1;"/>
<stop offset="0.398438" style="stop-color:rgb(96.112061%,49.266052%,19.972229%);stop-opacity:1;"/>
<stop offset="0.402344" style="stop-color:rgb(95.974731%,49.607849%,20.280457%);stop-opacity:1;"/>
<stop offset="0.40625" style="stop-color:rgb(95.890808%,49.794006%,20.452881%);stop-opacity:1;"/>
<stop offset="0.410156" style="stop-color:rgb(95.896912%,49.888611%,20.610046%);stop-opacity:1;"/>
<stop offset="0.414062" style="stop-color:rgb(95.903015%,49.983215%,20.767212%);stop-opacity:1;"/>
<stop offset="0.417969" style="stop-color:rgb(95.880127%,50.076294%,20.906067%);stop-opacity:1;"/>
<stop offset="0.421875" style="stop-color:rgb(95.855713%,50.167847%,21.044922%);stop-opacity:1;"/>
<stop offset="0.429688" style="stop-color:rgb(95.76416%,50.256348%,21.141052%);stop-opacity:1;"/>
<stop offset="0.4375" style="stop-color:rgb(95.643616%,50.436401%,21.372986%);stop-opacity:1;"/>
<stop offset="0.441406" style="stop-color:rgb(95.622253%,50.624084%,21.670532%);stop-opacity:1;"/>
<stop offset="0.445312" style="stop-color:rgb(95.629883%,50.717163%,21.83075%);stop-opacity:1;"/>
<stop offset="0.449219" style="stop-color:rgb(95.541382%,50.802612%,22.007751%);stop-opacity:1;"/>
<stop offset="0.453125" style="stop-color:rgb(95.451355%,50.888062%,22.184753%);stop-opacity:1;"/>
<stop offset="0.457031" style="stop-color:rgb(95.387268%,50.975037%,22.358704%);stop-opacity:1;"/>
<stop offset="0.460938" style="stop-color:rgb(95.324707%,51.063538%,22.531128%);stop-opacity:1;"/>
<stop offset="0.464844" style="stop-color:rgb(95.332336%,51.158142%,22.692871%);stop-opacity:1;"/>
<stop offset="0.46875" style="stop-color:rgb(95.339966%,51.252747%,22.85614%);stop-opacity:1;"/>
<stop offset="0.472656" style="stop-color:rgb(95.346069%,51.347351%,23.017883%);stop-opacity:1;"/>
<stop offset="0.476563" style="stop-color:rgb(95.353699%,51.441956%,23.179626%);stop-opacity:1;"/>
<stop offset="0.480469" style="stop-color:rgb(95.361328%,51.53656%,23.342896%);stop-opacity:1;"/>
<stop offset="0.484375" style="stop-color:rgb(95.368958%,51.63269%,23.506165%);stop-opacity:1;"/>
<stop offset="0.488281" style="stop-color:rgb(95.376587%,51.727295%,23.670959%);stop-opacity:1;"/>
<stop offset="0.492188" style="stop-color:rgb(95.384216%,51.823425%,23.834229%);stop-opacity:1;"/>
<stop offset="0.496094" style="stop-color:rgb(95.36438%,51.916504%,23.979187%);stop-opacity:1;"/>
<stop offset="0.5" style="stop-color:rgb(95.343018%,52.009583%,24.125671%);stop-opacity:1;"/>
<stop offset="0.507813" style="stop-color:rgb(95.249939%,52.098083%,24.224854%);stop-opacity:1;"/>
<stop offset="0.515625" style="stop-color:rgb(95.124817%,52.279663%,24.464417%);stop-opacity:1;"/>
<stop offset="0.519531" style="stop-color:rgb(95.098877%,52.467346%,24.769592%);stop-opacity:1;"/>
<stop offset="0.523438" style="stop-color:rgb(95.106506%,52.561951%,24.935913%);stop-opacity:1;"/>
<stop offset="0.527344" style="stop-color:rgb(95.027161%,52.746582%,25.041199%);stop-opacity:1;"/>
<stop offset="0.53125" style="stop-color:rgb(94.946289%,52.931213%,25.14801%);stop-opacity:1;"/>
<stop offset="0.535156" style="stop-color:rgb(94.885254%,53.097534%,25.268555%);stop-opacity:1;"/>
<stop offset="0.539063" style="stop-color:rgb(94.824219%,53.262329%,25.387573%);stop-opacity:1;"/>
<stop offset="0.542969" style="stop-color:rgb(94.830322%,53.358459%,25.55542%);stop-opacity:1;"/>
<stop offset="0.546875" style="stop-color:rgb(94.837952%,53.45459%,25.724792%);stop-opacity:1;"/>
<stop offset="0.550781" style="stop-color:rgb(94.786072%,53.544617%,25.90332%);stop-opacity:1;"/>
<stop offset="0.554688" style="stop-color:rgb(94.732666%,53.633118%,26.080322%);stop-opacity:1;"/>
<stop offset="0.558594" style="stop-color:rgb(94.638062%,53.718567%,26.266479%);stop-opacity:1;"/>
<stop offset="0.5625" style="stop-color:rgb(94.543457%,53.804016%,26.452637%);stop-opacity:1;"/>
<stop offset="0.566406" style="stop-color:rgb(94.543457%,53.900146%,26.623535%);stop-opacity:1;"/>
<stop offset="0.570313" style="stop-color:rgb(94.540405%,53.994751%,26.794434%);stop-opacity:1;"/>
<stop offset="0.574219" style="stop-color:rgb(94.522095%,54.089355%,26.96991%);stop-opacity:1;"/>
<stop offset="0.578125" style="stop-color:rgb(94.50531%,54.182434%,27.14386%);stop-opacity:1;"/>
<stop offset="0.582031" style="stop-color:rgb(94.410706%,54.267883%,27.331543%);stop-opacity:1;"/>
<stop offset="0.585938" style="stop-color:rgb(94.316101%,54.351807%,27.5177%);stop-opacity:1;"/>
<stop offset="0.589844" style="stop-color:rgb(94.27948%,54.444885%,27.696228%);stop-opacity:1;"/>
<stop offset="0.59375" style="stop-color:rgb(94.241333%,54.536438%,27.876282%);stop-opacity:1;"/>
<stop offset="0.597656" style="stop-color:rgb(94.248962%,54.634094%,28.048706%);stop-opacity:1;"/>
<stop offset="0.601563" style="stop-color:rgb(94.256592%,54.728699%,28.219604%);stop-opacity:1;"/>
<stop offset="0.605469" style="stop-color:rgb(94.270325%,54.920959%,28.396606%);stop-opacity:1;"/>
<stop offset="0.609375" style="stop-color:rgb(94.284058%,55.110168%,28.573608%);stop-opacity:1;"/>
<stop offset="0.613281" style="stop-color:rgb(94.296265%,55.28717%,28.7323%);stop-opacity:1;"/>
<stop offset="0.617188" style="stop-color:rgb(94.309998%,55.464172%,28.889465%);stop-opacity:1;"/>
<stop offset="0.625" style="stop-color:rgb(94.316101%,55.56488%,28.979492%);stop-opacity:1;"/>
<stop offset="0.632813" style="stop-color:rgb(94.33136%,55.763245%,29.206848%);stop-opacity:1;"/>
<stop offset="0.636719" style="stop-color:rgb(94.345093%,55.960083%,29.521179%);stop-opacity:1;"/>
<stop offset="0.640625" style="stop-color:rgb(94.352722%,56.057739%,29.695129%);stop-opacity:1;"/>
<stop offset="0.644531" style="stop-color:rgb(94.274902%,56.236267%,29.891968%);stop-opacity:1;"/>
<stop offset="0.648438" style="stop-color:rgb(94.197083%,56.413269%,30.08728%);stop-opacity:1;"/>
<stop offset="0.652344" style="stop-color:rgb(94.129944%,56.582642%,30.282593%);stop-opacity:1;"/>
<stop offset="0.65625" style="stop-color:rgb(94.061279%,56.750488%,30.476379%);stop-opacity:1;"/>
<stop offset="0.660156" style="stop-color:rgb(94.068909%,56.84967%,30.654907%);stop-opacity:1;"/>
<stop offset="0.664063" style="stop-color:rgb(94.075012%,56.948853%,30.831909%);stop-opacity:1;"/>
<stop offset="0.667969" style="stop-color:rgb(94.082642%,57.046509%,31.010437%);stop-opacity:1;"/>
<stop offset="0.671875" style="stop-color:rgb(94.088745%,57.144165%,31.188965%);stop-opacity:1;"/>
<stop offset="0.675781" style="stop-color:rgb(94.096375%,57.243347%,31.369019%);stop-opacity:1;"/>
<stop offset="0.679688" style="stop-color:rgb(94.102478%,57.342529%,31.547546%);stop-opacity:1;"/>
<stop offset="0.683594" style="stop-color:rgb(94.021606%,57.429504%,31.741333%);stop-opacity:1;"/>
<stop offset="0.6875" style="stop-color:rgb(93.937683%,57.518005%,31.933594%);stop-opacity:1;"/>
<stop offset="0.691406" style="stop-color:rgb(93.862915%,57.624817%,32.128906%);stop-opacity:1;"/>
<stop offset="0.695313" style="stop-color:rgb(93.788147%,57.733154%,32.322693%);stop-opacity:1;"/>
<stop offset="0.699219" style="stop-color:rgb(93.80188%,57.936096%,32.511902%);stop-opacity:1;"/>
<stop offset="0.703125" style="stop-color:rgb(93.815613%,58.137512%,32.701111%);stop-opacity:1;"/>
<stop offset="0.707031" style="stop-color:rgb(93.771362%,58.279419%,32.894897%);stop-opacity:1;"/>
<stop offset="0.710938" style="stop-color:rgb(93.728638%,58.421326%,33.09021%);stop-opacity:1;"/>
<stop offset="0.714844" style="stop-color:rgb(93.630981%,58.506775%,33.288574%);stop-opacity:1;"/>
<stop offset="0.71875" style="stop-color:rgb(93.533325%,58.592224%,33.485413%);stop-opacity:1;"/>
<stop offset="0.726563" style="stop-color:rgb(93.525696%,58.691406%,33.596802%);stop-opacity:1;"/>
<stop offset="0.734375" style="stop-color:rgb(93.52417%,58.889771%,33.81958%);stop-opacity:1;"/>
<stop offset="0.738281" style="stop-color:rgb(93.536377%,59.091187%,34.117126%);stop-opacity:1;"/>
<stop offset="0.742188" style="stop-color:rgb(93.544006%,59.191895%,34.300232%);stop-opacity:1;"/>
<stop offset="0.75" style="stop-color:rgb(93.55011%,59.292603%,34.442139%);stop-opacity:1;"/>
<stop offset="0.757813" style="stop-color:rgb(93.563843%,59.494019%,34.67865%);stop-opacity:1;"/>
<stop offset="0.761719" style="stop-color:rgb(93.577576%,59.69696%,34.94873%);stop-opacity:1;"/>
<stop offset="0.765625" style="stop-color:rgb(93.585205%,59.797668%,35.119629%);stop-opacity:1;"/>
<stop offset="0.769531" style="stop-color:rgb(93.591309%,59.898376%,35.307312%);stop-opacity:1;"/>
<stop offset="0.773438" style="stop-color:rgb(93.598938%,59.997559%,35.493469%);stop-opacity:1;"/>
<stop offset="0.777344" style="stop-color:rgb(93.605042%,60.098267%,35.681152%);stop-opacity:1;"/>
<stop offset="0.78125" style="stop-color:rgb(93.611145%,60.2005%,35.86731%);stop-opacity:1;"/>
<stop offset="0.785156" style="stop-color:rgb(93.621826%,60.351563%,36.061096%);stop-opacity:1;"/>
<stop offset="0.789063" style="stop-color:rgb(93.632507%,60.50415%,36.253357%);stop-opacity:1;"/>
<stop offset="0.792969" style="stop-color:rgb(93.64624%,60.710144%,36.454773%);stop-opacity:1;"/>
<stop offset="0.796875" style="stop-color:rgb(93.659973%,60.913086%,36.654663%);stop-opacity:1;"/>
<stop offset="0.800781" style="stop-color:rgb(93.582153%,61.021423%,36.859131%);stop-opacity:1;"/>
<stop offset="0.804688" style="stop-color:rgb(93.504333%,61.128235%,37.062073%);stop-opacity:1;"/>
<stop offset="0.808594" style="stop-color:rgb(93.421936%,61.21521%,37.263489%);stop-opacity:1;"/>
<stop offset="0.8125" style="stop-color:rgb(93.339539%,61.303711%,37.466431%);stop-opacity:1;"/>
<stop offset="0.816406" style="stop-color:rgb(93.345642%,61.405945%,37.657166%);stop-opacity:1;"/>
<stop offset="0.820313" style="stop-color:rgb(93.351746%,61.506653%,37.8479%);stop-opacity:1;"/>
<stop offset="0.824219" style="stop-color:rgb(93.359375%,61.608887%,38.038635%);stop-opacity:1;"/>
<stop offset="0.828125" style="stop-color:rgb(93.365479%,61.709595%,38.22937%);stop-opacity:1;"/>
<stop offset="0.832031" style="stop-color:rgb(93.371582%,61.811829%,38.421631%);stop-opacity:1;"/>
<stop offset="0.835938" style="stop-color:rgb(93.379211%,61.914063%,38.615417%);stop-opacity:1;"/>
<stop offset="0.839844" style="stop-color:rgb(93.391418%,62.10022%,38.818359%);stop-opacity:1;"/>
<stop offset="0.84375" style="stop-color:rgb(93.403625%,62.284851%,39.021301%);stop-opacity:1;"/>
<stop offset="0.847656" style="stop-color:rgb(93.415833%,62.478638%,39.227295%);stop-opacity:1;"/>
<stop offset="0.851562" style="stop-color:rgb(93.429565%,62.670898%,39.431763%);stop-opacity:1;"/>
<stop offset="0.855469" style="stop-color:rgb(93.435669%,62.773132%,39.627075%);stop-opacity:1;"/>
<stop offset="0.859375" style="stop-color:rgb(93.443298%,62.875366%,39.822388%);stop-opacity:1;"/>
<stop offset="0.863281" style="stop-color:rgb(93.400574%,62.971497%,40.023804%);stop-opacity:1;"/>
<stop offset="0.867187" style="stop-color:rgb(93.359375%,63.066101%,40.223694%);stop-opacity:1;"/>
<stop offset="0.871094" style="stop-color:rgb(93.260193%,63.15155%,40.432739%);stop-opacity:1;"/>
<stop offset="0.875" style="stop-color:rgb(93.161011%,63.237%,40.641785%);stop-opacity:1;"/>
<stop offset="0.878906" style="stop-color:rgb(93.145752%,63.336182%,40.841675%);stop-opacity:1;"/>
<stop offset="0.882813" style="stop-color:rgb(93.128967%,63.435364%,41.040039%);stop-opacity:1;"/>
<stop offset="0.886719" style="stop-color:rgb(93.135071%,63.539124%,41.236877%);stop-opacity:1;"/>
<stop offset="0.890625" style="stop-color:rgb(93.1427%,63.641357%,41.433716%);stop-opacity:1;"/>
<stop offset="0.894531" style="stop-color:rgb(93.148804%,63.745117%,41.630554%);stop-opacity:1;"/>
<stop offset="0.898437" style="stop-color:rgb(93.154907%,63.848877%,41.828918%);stop-opacity:1;"/>
<stop offset="0.902344" style="stop-color:rgb(93.162537%,63.952637%,42.027283%);stop-opacity:1;"/>
<stop offset="0.90625" style="stop-color:rgb(93.16864%,64.054871%,42.224121%);stop-opacity:1;"/>
<stop offset="0.910156" style="stop-color:rgb(93.174744%,64.15863%,42.422485%);stop-opacity:1;"/>
<stop offset="0.914063" style="stop-color:rgb(93.180847%,64.26239%,42.62085%);stop-opacity:1;"/>
<stop offset="0.917969" style="stop-color:rgb(93.193054%,64.447021%,42.762756%);stop-opacity:1;"/>
<stop offset="0.921875" style="stop-color:rgb(93.205261%,64.631653%,42.904663%);stop-opacity:1;"/>
<stop offset="0.925781" style="stop-color:rgb(93.209839%,64.828491%,43.03894%);stop-opacity:1;"/>
<stop offset="0.929687" style="stop-color:rgb(93.211365%,65.02533%,43.173218%);stop-opacity:1;"/>
<stop offset="0.933594" style="stop-color:rgb(93.112183%,65.110779%,43.385315%);stop-opacity:1;"/>
<stop offset="0.9375" style="stop-color:rgb(93.013%,65.197754%,43.600464%);stop-opacity:1;"/>
<stop offset="0.941406" style="stop-color:rgb(92.958069%,65.292358%,43.807983%);stop-opacity:1;"/>
<stop offset="0.945313" style="stop-color:rgb(92.901611%,65.385437%,44.017029%);stop-opacity:1;"/>
<stop offset="0.949219" style="stop-color:rgb(92.909241%,65.489197%,44.218445%);stop-opacity:1;"/>
<stop offset="0.953125" style="stop-color:rgb(92.915344%,65.592957%,44.419861%);stop-opacity:1;"/>
<stop offset="0.957031" style="stop-color:rgb(92.921448%,65.696716%,44.622803%);stop-opacity:1;"/>
<stop offset="0.960938" style="stop-color:rgb(92.927551%,65.802002%,44.825745%);stop-opacity:1;"/>
<stop offset="0.964844" style="stop-color:rgb(92.935181%,65.914917%,45.022583%);stop-opacity:1;"/>
<stop offset="0.96875" style="stop-color:rgb(92.94281%,66.027832%,45.219421%);stop-opacity:1;"/>
<stop offset="0.972656" style="stop-color:rgb(92.955017%,66.238403%,45.350647%);stop-opacity:1;"/>
<stop offset="0.976563" style="stop-color:rgb(92.96875%,66.448975%,45.478821%);stop-opacity:1;"/>
<stop offset="0.984375" style="stop-color:rgb(92.979431%,66.615295%,45.640564%);stop-opacity:1;"/>
<stop offset="0.988281" style="stop-color:rgb(92.997742%,66.888428%,46.006775%);stop-opacity:1;"/>
<stop offset="0.992188" style="stop-color:rgb(93.003845%,66.993713%,46.211243%);stop-opacity:1;"/>
<stop offset="0.996094" style="stop-color:rgb(92.932129%,67.085266%,46.495056%);stop-opacity:1;"/>
<stop offset="1" style="stop-color:rgb(92.858887%,67.175293%,46.777344%);stop-opacity:1;"/>
</linearGradient>
<clipPath id="clip3">
  <path d="M 0 0.414063 C 65.191406 13.804688 135.167969 14.421875 199.371094 0.414063 L 198.566406 20.238281 C 192.742188 22.578125 188.628906 28.28125 188.628906 34.941406 C 188.628906 41.144531 192.199219 46.519531 197.394531 49.117188 L 198.59375 68 C 132.261719 60.996094 67.109375 60.996094 0.777344 68 L 1.980469 49.117188 C 7.175781 46.519531 10.746094 41.144531 10.746094 34.941406 C 10.746094 28.28125 6.632813 22.578125 0.804688 20.238281 Z M 0 0.414063 "/>
</clipPath>
<clipPath id="clip4">
  <path d="M 0 0.414063 C 65.191406 13.804688 135.167969 14.421875 199.371094 0.414063 L 198.566406 20.238281 C 192.742188 22.578125 188.628906 28.28125 188.628906 34.941406 C 188.628906 41.144531 192.199219 46.519531 197.394531 49.117188 L 198.59375 68 C 132.261719 60.996094 67.109375 60.996094 0.777344 68 L 1.980469 49.117188 C 7.175781 46.519531 10.746094 41.144531 10.746094 34.941406 C 10.746094 28.28125 6.632813 22.578125 0.804688 20.238281 L 0 0.414063 "/>
</clipPath>
<linearGradient id="linear1" gradientUnits="userSpaceOnUse" x1="0.101201" y1="0" x2="1.191953" y2="0" gradientTransform="matrix(-0.00000799,-61.9609,-182.785,0.00000271,99.5615,74.2705)">
<stop offset="0" style="stop-color:rgb(60.974121%,16.511536%,16.28418%);stop-opacity:1;"/>
<stop offset="0.0078125" style="stop-color:rgb(61.088562%,16.575623%,16.291809%);stop-opacity:1;"/>
<stop offset="0.015625" style="stop-color:rgb(61.331177%,16.719055%,16.304016%);stop-opacity:1;"/>
<stop offset="0.0234375" style="stop-color:rgb(61.541748%,16.795349%,16.299438%);stop-opacity:1;"/>
<stop offset="0.03125" style="stop-color:rgb(61.694336%,16.78772%,16.28418%);stop-opacity:1;"/>
<stop offset="0.046875" style="stop-color:rgb(61.894226%,16.810608%,16.307068%);stop-opacity:1;"/>
<stop offset="0.0625" style="stop-color:rgb(62.164307%,16.835022%,16.329956%);stop-opacity:1;"/>
<stop offset="0.0703125" style="stop-color:rgb(62.368774%,16.848755%,16.342163%);stop-opacity:1;"/>
<stop offset="0.078125" style="stop-color:rgb(62.538147%,16.880798%,16.374207%);stop-opacity:1;"/>
<stop offset="0.0859375" style="stop-color:rgb(62.783813%,16.902161%,16.395569%);stop-opacity:1;"/>
<stop offset="0.09375" style="stop-color:rgb(63.008118%,16.906738%,16.398621%);stop-opacity:1;"/>
<stop offset="0.109375" style="stop-color:rgb(63.233948%,16.911316%,16.400146%);stop-opacity:1;"/>
<stop offset="0.125" style="stop-color:rgb(63.50708%,17.007446%,16.40625%);stop-opacity:1;"/>
<stop offset="0.140625" style="stop-color:rgb(63.772583%,17.16156%,16.418457%);stop-opacity:1;"/>
<stop offset="0.15625" style="stop-color:rgb(64.050293%,17.225647%,16.427612%);stop-opacity:1;"/>
<stop offset="0.164063" style="stop-color:rgb(64.312744%,17.225647%,16.426086%);stop-opacity:1;"/>
<stop offset="0.171875" style="stop-color:rgb(64.570618%,17.23938%,16.436768%);stop-opacity:1;"/>
<stop offset="0.179688" style="stop-color:rgb(64.794922%,17.242432%,16.438293%);stop-opacity:1;"/>
<stop offset="0.1875" style="stop-color:rgb(64.956665%,17.228699%,16.423035%);stop-opacity:1;"/>
<stop offset="0.203125" style="stop-color:rgb(65.159607%,17.266846%,16.442871%);stop-opacity:1;"/>
<stop offset="0.210938" style="stop-color:rgb(65.361023%,17.376709%,16.456604%);stop-opacity:1;"/>
<stop offset="0.21875" style="stop-color:rgb(65.509033%,17.478943%,16.427612%);stop-opacity:1;"/>
<stop offset="0.226563" style="stop-color:rgb(65.661621%,17.506409%,16.404724%);stop-opacity:1;"/>
<stop offset="0.234375" style="stop-color:rgb(65.85083%,17.500305%,16.394043%);stop-opacity:1;"/>
<stop offset="0.25" style="stop-color:rgb(66.140747%,17.514038%,16.404724%);stop-opacity:1;"/>
<stop offset="0.265625" style="stop-color:rgb(66.389465%,17.518616%,16.40625%);stop-opacity:1;"/>
<stop offset="0.273438" style="stop-color:rgb(66.540527%,17.503357%,16.389465%);stop-opacity:1;"/>
<stop offset="0.28125" style="stop-color:rgb(66.763306%,17.506409%,16.389465%);stop-opacity:1;"/>
<stop offset="0.289063" style="stop-color:rgb(67.030334%,17.521667%,16.400146%);stop-opacity:1;"/>
<stop offset="0.296875" style="stop-color:rgb(67.233276%,17.51709%,16.394043%);stop-opacity:1;"/>
<stop offset="0.304688" style="stop-color:rgb(67.38739%,17.530823%,16.372681%);stop-opacity:1;"/>
<stop offset="0.3125" style="stop-color:rgb(67.536926%,17.619324%,16.342163%);stop-opacity:1;"/>
<stop offset="0.320313" style="stop-color:rgb(67.727661%,17.71698%,16.323853%);stop-opacity:1;"/>
<stop offset="0.328125" style="stop-color:rgb(67.984009%,17.76123%,16.329956%);stop-opacity:1;"/>
<stop offset="0.335938" style="stop-color:rgb(68.22052%,17.767334%,16.331482%);stop-opacity:1;"/>
<stop offset="0.34375" style="stop-color:rgb(68.389893%,17.753601%,16.316223%);stop-opacity:1;"/>
<stop offset="0.351563" style="stop-color:rgb(68.545532%,17.736816%,16.296387%);stop-opacity:1;"/>
<stop offset="0.359375" style="stop-color:rgb(68.699646%,17.723083%,16.279602%);stop-opacity:1;"/>
<stop offset="0.375" style="stop-color:rgb(68.911743%,17.745972%,16.299438%);stop-opacity:1;"/>
<stop offset="0.382813" style="stop-color:rgb(69.122314%,17.767334%,16.316223%);stop-opacity:1;"/>
<stop offset="0.390625" style="stop-color:rgb(69.277954%,17.750549%,16.296387%);stop-opacity:1;"/>
<stop offset="0.398438" style="stop-color:rgb(69.43512%,17.732239%,16.27655%);stop-opacity:1;"/>
<stop offset="0.40625" style="stop-color:rgb(69.631958%,17.774963%,16.262817%);stop-opacity:1;"/>
<stop offset="0.414063" style="stop-color:rgb(69.892883%,17.913818%,16.259766%);stop-opacity:1;"/>
<stop offset="0.421875" style="stop-color:rgb(70.124817%,18.009949%,16.252136%);stop-opacity:1;"/>
<stop offset="0.429688" style="stop-color:rgb(70.294189%,18.009949%,16.233826%);stop-opacity:1;"/>
<stop offset="0.4375" style="stop-color:rgb(70.451355%,17.993164%,16.213989%);stop-opacity:1;"/>
<stop offset="0.445313" style="stop-color:rgb(70.608521%,17.976379%,16.192627%);stop-opacity:1;"/>
<stop offset="0.453125" style="stop-color:rgb(70.765686%,17.958069%,16.172791%);stop-opacity:1;"/>
<stop offset="0.460938" style="stop-color:rgb(70.921326%,17.941284%,16.152954%);stop-opacity:1;"/>
<stop offset="0.46875" style="stop-color:rgb(71.078491%,17.9245%,16.131592%);stop-opacity:1;"/>
<stop offset="0.476563" style="stop-color:rgb(71.235657%,17.945862%,16.107178%);stop-opacity:1;"/>
<stop offset="0.484375" style="stop-color:rgb(71.389771%,18.045044%,16.075134%);stop-opacity:1;"/>
<stop offset="0.492188" style="stop-color:rgb(71.54541%,18.130493%,16.044617%);stop-opacity:1;"/>
<stop offset="0.5" style="stop-color:rgb(71.702576%,18.138123%,16.021729%);stop-opacity:1;"/>
<stop offset="0.507813" style="stop-color:rgb(71.917725%,18.138123%,16.015625%);stop-opacity:1;"/>
<stop offset="0.515625" style="stop-color:rgb(72.198486%,18.154907%,16.027832%);stop-opacity:1;"/>
<stop offset="0.523438" style="stop-color:rgb(72.421265%,18.156433%,16.023254%);stop-opacity:1;"/>
<stop offset="0.53125" style="stop-color:rgb(72.579956%,18.139648%,16.001892%);stop-opacity:1;"/>
<stop offset="0.539063" style="stop-color:rgb(72.735596%,18.122864%,15.982056%);stop-opacity:1;"/>
<stop offset="0.546875" style="stop-color:rgb(72.894287%,18.136597%,15.957642%);stop-opacity:1;"/>
<stop offset="0.5625" style="stop-color:rgb(73.085022%,18.257141%,15.917969%);stop-opacity:1;"/>
<stop offset="0.578125" style="stop-color:rgb(73.25592%,18.353271%,15.882874%);stop-opacity:1;"/>
<stop offset="0.585938" style="stop-color:rgb(73.39325%,18.339539%,15.864563%);stop-opacity:1;"/>
<stop offset="0.59375" style="stop-color:rgb(73.550415%,18.322754%,15.844727%);stop-opacity:1;"/>
<stop offset="0.601563" style="stop-color:rgb(73.709106%,18.312073%,15.823364%);stop-opacity:1;"/>
<stop offset="0.609375" style="stop-color:rgb(73.864746%,18.380737%,15.792847%);stop-opacity:1;"/>
<stop offset="0.617188" style="stop-color:rgb(74.023438%,18.502808%,15.756226%);stop-opacity:1;"/>
<stop offset="0.625" style="stop-color:rgb(74.180603%,18.544006%,15.72876%);stop-opacity:1;"/>
<stop offset="0.632813" style="stop-color:rgb(74.339294%,18.528748%,15.708923%);stop-opacity:1;"/>
<stop offset="0.640625" style="stop-color:rgb(74.497986%,18.511963%,15.687561%);stop-opacity:1;"/>
<stop offset="0.648438" style="stop-color:rgb(74.655151%,18.495178%,15.666199%);stop-opacity:1;"/>
<stop offset="0.65625" style="stop-color:rgb(74.813843%,18.479919%,15.644836%);stop-opacity:1;"/>
<stop offset="0.664063" style="stop-color:rgb(75.033569%,18.519592%,15.609741%);stop-opacity:1;"/>
<stop offset="0.667969" style="stop-color:rgb(75.332642%,18.629456%,15.553284%);stop-opacity:1;"/>
<stop offset="0.671875" style="stop-color:rgb(75.491333%,18.693542%,15.522766%);stop-opacity:1;"/>
<stop offset="0.679688" style="stop-color:rgb(75.57373%,18.688965%,15.512085%);stop-opacity:1;"/>
<stop offset="0.6875" style="stop-color:rgb(75.737%,18.676758%,15.489197%);stop-opacity:1;"/>
<stop offset="0.695313" style="stop-color:rgb(75.895691%,18.661499%,15.467834%);stop-opacity:1;"/>
<stop offset="0.703125" style="stop-color:rgb(76.054382%,18.644714%,15.447998%);stop-opacity:1;"/>
<stop offset="0.710938" style="stop-color:rgb(76.213074%,18.629456%,15.426636%);stop-opacity:1;"/>
<stop offset="0.71875" style="stop-color:rgb(76.370239%,18.612671%,15.405273%);stop-opacity:1;"/>
<stop offset="0.726563" style="stop-color:rgb(76.528931%,18.597412%,15.383911%);stop-opacity:1;"/>
<stop offset="0.734375" style="stop-color:rgb(76.687622%,18.582153%,15.362549%);stop-opacity:1;"/>
<stop offset="0.742188" style="stop-color:rgb(76.846313%,18.565369%,15.341187%);stop-opacity:1;"/>
<stop offset="0.75" style="stop-color:rgb(77.005005%,18.55011%,15.319824%);stop-opacity:1;"/>
<stop offset="0.757813" style="stop-color:rgb(77.16217%,18.533325%,15.298462%);stop-opacity:1;"/>
<stop offset="0.765625" style="stop-color:rgb(77.320862%,18.518066%,15.2771%);stop-opacity:1;"/>
<stop offset="0.773438" style="stop-color:rgb(77.479553%,18.502808%,15.257263%);stop-opacity:1;"/>
<stop offset="0.78125" style="stop-color:rgb(77.638245%,18.486023%,15.235901%);stop-opacity:1;"/>
<stop offset="0.789063" style="stop-color:rgb(77.796936%,18.470764%,15.214539%);stop-opacity:1;"/>
<stop offset="0.796875" style="stop-color:rgb(77.954102%,18.453979%,15.193176%);stop-opacity:1;"/>
<stop offset="0.804688" style="stop-color:rgb(78.114319%,18.481445%,15.167236%);stop-opacity:1;"/>
<stop offset="0.8125" style="stop-color:rgb(78.274536%,18.589783%,15.130615%);stop-opacity:1;"/>
<stop offset="0.875" style="stop-color:rgb(78.378296%,18.685913%,15.103149%);stop-opacity:1;"/>
<stop offset="1" style="stop-color:rgb(78.40271%,18.707275%,15.097046%);stop-opacity:1;"/>
</linearGradient>
</defs>
<g id="surface1">
<g clip-path="url(#clip1)" clip-rule="nonzero">
<g clip-path="url(#clip2)" clip-rule="nonzero">
<path style=" stroke:none;fill-rule:nonzero;fill:url(#linear0);" d="M 199.371094 68 L 0 68 L 0 0.414063 L 199.371094 0.414063 Z M 199.371094 68 "/>
</g>
</g>
<path style=" stroke:none;fill-rule:nonzero;fill:rgb(100%,100%,100%);fill-opacity:1;" d="M 29.128906 40.777344 C 28.878906 41.472656 28.53125 42.039063 28.074219 42.460938 C 27.625 42.894531 27.117188 43.199219 26.5625 43.382813 C 26.007813 43.566406 25.445313 43.640625 24.878906 43.597656 C 24.304688 43.558594 23.792969 43.417969 23.308594 43.167969 C 22.839844 42.917969 22.449219 42.585938 22.15625 42.15625 C 21.867188 41.730469 21.71875 41.21875 21.710938 40.628906 L 21.710938 32.515625 C 21.71875 31.941406 21.867188 31.445313 22.164063 31.03125 C 22.464844 30.625 22.855469 30.292969 23.335938 30.058594 C 23.824219 29.820313 24.347656 29.6875 24.910156 29.636719 C 25.476563 29.59375 26.039063 29.660156 26.589844 29.828125 C 27.128906 29.992188 27.617188 30.273438 28.039063 30.664063 C 28.464844 31.0625 28.777344 31.578125 28.976563 32.214844 L 34.902344 30.375 C 34.554688 29.0625 34.03125 27.953125 33.328125 27.054688 C 32.628906 26.160156 31.816406 25.445313 30.902344 24.90625 C 29.980469 24.375 29.027344 23.988281 28.03125 23.753906 C 27.035156 23.515625 26.074219 23.398438 25.144531 23.40625 C 24.117188 23.40625 23.09375 23.53125 22.097656 23.769531 C 21.101563 24.011719 20.164063 24.375 19.285156 24.867188 C 18.40625 25.355469 17.625 25.960938 16.953125 26.699219 C 16.28125 27.429688 15.761719 28.285156 15.378906 29.261719 C 14.988281 30.242188 14.796875 31.335938 14.789063 32.566406 L 14.789063 40.679688 C 14.796875 41.90625 14.988281 43 15.378906 43.980469 C 15.761719 44.953125 16.28125 45.804688 16.953125 46.527344 C 17.625 47.257813 18.40625 47.863281 19.285156 48.34375 C 20.164063 48.824219 21.101563 49.191406 22.097656 49.429688 C 23.09375 49.671875 24.117188 49.789063 25.144531 49.789063 C 26.074219 49.789063 27.035156 49.671875 28.015625 49.421875 C 29.003906 49.183594 29.957031 48.785156 30.878906 48.234375 C 31.808594 47.6875 32.644531 46.96875 33.394531 46.070313 C 34.140625 45.175781 34.746094 44.070313 35.203125 42.769531 L 29.128906 40.777344 "/>
<path style=" stroke:none;fill-rule:nonzero;fill:rgb(100%,100%,100%);fill-opacity:1;" d="M 45.554688 43.664063 C 45.011719 43.660156 44.46875 43.535156 43.964844 43.308594 C 43.441406 43.078125 43.007813 42.742188 42.667969 42.328125 C 42.335938 41.914063 42.15625 41.425781 42.148438 40.878906 L 42.148438 32.367188 C 42.15625 31.820313 42.335938 31.351563 42.667969 30.980469 C 43.007813 30.597656 43.441406 30.316406 43.964844 30.117188 C 44.46875 29.929688 45.011719 29.832031 45.554688 29.828125 L 45.554688 23.15625 C 44.253906 23.167969 43 23.375 41.78125 23.753906 C 40.554688 24.144531 39.449219 24.71875 38.460938 25.480469 C 37.472656 26.25 36.695313 27.207031 36.113281 28.351563 C 35.53125 29.496094 35.242188 30.832031 35.226563 32.367188 L 35.226563 40.726563 C 35.242188 42.28125 35.53125 43.632813 36.113281 44.777344 C 36.695313 45.921875 37.472656 46.867188 38.460938 47.621094 C 39.449219 48.378906 40.554688 48.933594 41.78125 49.304688 C 43 49.675781 44.253906 49.875 45.554688 49.886719 Z M 45.582031 29.828125 C 46.128906 29.828125 46.652344 29.925781 47.167969 30.117188 C 47.679688 30.316406 48.105469 30.597656 48.445313 30.980469 C 48.785156 31.351563 48.957031 31.820313 48.96875 32.367188 L 48.96875 40.878906 C 48.957031 41.425781 48.785156 41.914063 48.445313 42.328125 C 48.105469 42.742188 47.679688 43.078125 47.167969 43.308594 C 46.652344 43.539063 46.128906 43.664063 45.582031 43.664063 L 45.554688 43.664063 L 45.554688 49.886719 L 45.582031 49.886719 C 46.875 49.878906 48.136719 49.679688 49.355469 49.304688 C 50.578125 48.933594 51.679688 48.378906 52.660156 47.621094 C 53.640625 46.867188 54.417969 45.921875 55 44.777344 C 55.582031 43.632813 55.871094 42.28125 55.886719 40.726563 L 55.886719 32.367188 C 55.871094 30.832031 55.582031 29.496094 55 28.351563 C 54.417969 27.207031 53.640625 26.25 52.660156 25.480469 C 51.679688 24.71875 50.578125 24.144531 49.355469 23.753906 C 48.136719 23.371094 46.875 23.164063 45.582031 23.15625 L 45.554688 23.15625 L 45.554688 29.828125 L 45.582031 29.828125 "/>
<path style=" stroke:none;fill-rule:nonzero;fill:rgb(100%,100%,100%);fill-opacity:1;" d="M 111.972656 54.78125 L 111.972656 48.84375 C 112.917969 49.273438 113.914063 49.539063 114.949219 49.65625 C 115.101563 49.671875 115.253906 49.683594 115.40625 49.695313 L 115.40625 44.316406 C 115.355469 44.324219 115.308594 44.332031 115.257813 44.335938 C 114.667969 44.410156 114.085938 44.410156 113.515625 44.320313 C 112.941406 44.230469 112.429688 44.0625 111.972656 43.816406 L 111.972656 28.832031 C 112.460938 28.589844 113 28.433594 113.597656 28.34375 C 114.1875 28.257813 114.792969 28.257813 115.390625 28.335938 L 115.40625 28.335938 L 115.40625 23.160156 C 115.289063 23.15625 115.175781 23.15625 115.058594 23.15625 C 113.972656 23.15625 112.859375 23.238281 111.707031 23.398438 C 110.5625 23.554688 109.425781 23.769531 108.285156 24.0625 C 107.148438 24.351563 106.054688 24.699219 105 25.097656 L 105 56.953125 C 107.507813 56.363281 109.84375 55.632813 111.972656 54.78125 Z M 115.40625 49.695313 C 116.296875 49.757813 117.183594 49.703125 118.070313 49.546875 C 119.105469 49.355469 120.085938 49.03125 121.015625 48.566406 C 121.945313 48.101563 122.765625 47.507813 123.480469 46.777344 C 124.203125 46.046875 124.757813 45.199219 125.164063 44.230469 C 125.570313 43.257813 125.769531 42.171875 125.761719 40.976563 L 125.761719 32.066406 C 125.628906 30.40625 125.257813 29.007813 124.640625 27.859375 C 124.027344 26.714844 123.238281 25.804688 122.261719 25.105469 C 121.28125 24.417969 120.179688 23.921875 118.949219 23.613281 C 117.824219 23.332031 116.648438 23.175781 115.40625 23.160156 L 115.40625 28.335938 C 116.007813 28.417969 116.5625 28.585938 117.066406 28.832031 C 117.582031 29.082031 117.996094 29.421875 118.320313 29.851563 C 118.644531 30.28125 118.816406 30.804688 118.84375 31.417969 L 118.84375 41.324219 C 118.765625 41.921875 118.550781 42.429688 118.210938 42.851563 C 117.863281 43.265625 117.429688 43.605469 116.917969 43.847656 C 116.445313 44.074219 115.941406 44.234375 115.40625 44.316406 L 115.40625 49.695313 "/>
<path style=" stroke:none;fill-rule:nonzero;fill:rgb(100%,100%,100%);fill-opacity:1;" d="M 137.070313 23.324219 C 136.109375 23.351563 135.15625 23.484375 134.21875 23.722656 C 132.988281 24.027344 131.84375 24.519531 130.78125 25.199219 C 129.71875 25.871094 128.800781 26.730469 128.027344 27.785156 L 131.414063 30.921875 C 131.878906 30.414063 132.425781 29.984375 133.054688 29.644531 C 133.6875 29.304688 134.359375 29.054688 135.054688 28.914063 C 135.742188 28.777344 136.414063 28.75 137.070313 28.832031 Z M 136.589844 32.765625 C 134.996094 32.773438 133.601563 33.023438 132.40625 33.511719 C 131.203125 33.992188 130.210938 34.648438 129.421875 35.46875 C 128.625 36.289063 128.035156 37.21875 127.652344 38.246094 C 127.273438 39.269531 127.089844 40.332031 127.121094 41.425781 C 127.15625 42.519531 127.40625 43.582031 127.851563 44.601563 C 128.308594 45.632813 128.980469 46.550781 129.859375 47.382813 C 130.75 48.203125 131.84375 48.859375 133.164063 49.339844 C 134.300781 49.761719 135.605469 50.003906 137.070313 50.070313 L 137.070313 44.726563 C 136.453125 44.664063 135.921875 44.511719 135.460938 44.277344 C 134.855469 43.964844 134.398438 43.558594 134.085938 43.066406 C 133.761719 42.570313 133.59375 42.039063 133.570313 41.484375 C 133.535156 40.917969 133.660156 40.386719 133.9375 39.882813 C 134.210938 39.382813 134.640625 38.960938 135.222656 38.636719 C 135.722656 38.351563 136.335938 38.175781 137.070313 38.113281 L 137.070313 32.769531 C 136.90625 32.761719 136.75 32.761719 136.589844 32.765625 Z M 137.070313 50.070313 C 137.304688 50.078125 137.542969 50.085938 137.785156 50.085938 C 138.839844 50.085938 139.917969 50.003906 141.019531 49.84375 C 142.125 49.695313 143.230469 49.472656 144.324219 49.191406 C 145.417969 48.90625 146.472656 48.578125 147.492188 48.195313 L 147.492188 32.214844 C 147.484375 30.804688 147.21875 29.5625 146.695313 28.484375 C 146.175781 27.398438 145.460938 26.484375 144.5625 25.738281 C 143.667969 24.992188 142.648438 24.417969 141.511719 24.011719 C 140.367188 23.613281 139.171875 23.382813 137.925781 23.332031 C 137.640625 23.320313 137.355469 23.320313 137.070313 23.324219 L 137.070313 28.832031 L 137.121094 28.839844 C 137.792969 28.941406 138.40625 29.164063 138.953125 29.527344 C 139.503906 29.886719 139.941406 30.398438 140.265625 31.0625 C 140.597656 31.726563 140.765625 32.554688 140.773438 33.558594 C 140.140625 33.246094 139.453125 33.03125 138.722656 32.921875 C 138.15625 32.832031 137.605469 32.78125 137.070313 32.769531 L 137.070313 38.113281 C 137.1875 38.101563 137.3125 38.09375 137.4375 38.089844 C 138.042969 38.066406 138.625 38.097656 139.171875 38.179688 C 139.726563 38.265625 140.191406 38.390625 140.574219 38.539063 L 140.574219 44.410156 C 140.101563 44.535156 139.628906 44.628906 139.144531 44.675781 C 138.671875 44.734375 138.183594 44.761719 137.6875 44.761719 C 137.472656 44.757813 137.265625 44.746094 137.070313 44.726563 L 137.070313 50.070313 "/>
<path style=" stroke:none;fill-rule:nonzero;fill:rgb(100%,100%,100%);fill-opacity:1;" d="M 148.664063 45.605469 C 149.476563 46.675781 150.371094 47.539063 151.351563 48.179688 C 152.332031 48.824219 153.367188 49.289063 154.472656 49.570313 C 155.574219 49.855469 156.730469 49.996094 157.925781 49.988281 C 159.144531 49.988281 160.304688 49.8125 161.417969 49.457031 C 162.527344 49.097656 163.515625 48.566406 164.386719 47.863281 C 165.257813 47.15625 165.957031 46.277344 166.460938 45.21875 C 166.96875 44.164063 167.226563 42.925781 167.234375 41.523438 C 167.21875 40.3125 166.984375 39.269531 166.535156 38.40625 C 166.089844 37.535156 165.492188 36.8125 164.761719 36.230469 C 164.023438 35.644531 163.226563 35.179688 162.363281 34.8125 C 161.5 34.449219 160.652344 34.164063 159.816406 33.960938 C 159.535156 33.910156 159.191406 33.816406 158.796875 33.675781 C 158.394531 33.542969 158.015625 33.359375 157.632813 33.144531 C 157.25 32.921875 156.9375 32.65625 156.703125 32.355469 C 156.464844 32.050781 156.355469 31.703125 156.378906 31.320313 C 156.445313 30.648438 156.664063 30.152344 157.027344 29.828125 C 157.382813 29.496094 157.832031 29.304688 158.363281 29.253906 C 158.894531 29.195313 159.441406 29.238281 160.023438 29.378906 C 160.605469 29.519531 161.152344 29.71875 161.65625 29.976563 C 162.171875 30.234375 162.585938 30.515625 162.902344 30.824219 L 166.339844 26.09375 C 165.449219 25.390625 164.519531 24.832031 163.558594 24.433594 C 162.585938 24.035156 161.640625 23.761719 160.703125 23.605469 C 159.773438 23.449219 158.910156 23.382813 158.121094 23.40625 C 156.578125 23.441406 155.226563 23.722656 154.066406 24.234375 C 152.902344 24.757813 151.941406 25.457031 151.195313 26.308594 C 150.445313 27.171875 149.914063 28.125 149.609375 29.179688 C 149.300781 30.226563 149.226563 31.296875 149.386719 32.382813 C 149.550781 33.476563 149.957031 34.507813 150.621094 35.484375 C 151.277344 36.464844 152.199219 37.320313 153.386719 38.039063 C 154.570313 38.753906 156.03125 39.269531 157.773438 39.582031 C 158.554688 39.707031 159.160156 39.929688 159.609375 40.253906 C 160.046875 40.585938 160.320313 40.976563 160.429688 41.433594 C 160.539063 41.882813 160.480469 42.363281 160.265625 42.867188 C 160.03125 43.390625 159.609375 43.722656 159.011719 43.882813 C 158.414063 44.039063 157.714844 44.039063 156.910156 43.863281 C 156.105469 43.691406 155.269531 43.375 154.40625 42.910156 C 153.542969 42.445313 152.722656 41.847656 151.949219 41.125 L 148.664063 45.605469 "/>
<path style=" stroke:none;fill-rule:nonzero;fill:rgb(100%,100%,100%);fill-opacity:1;" d="M 166.015625 45.605469 C 166.828125 46.675781 167.722656 47.539063 168.703125 48.179688 C 169.679688 48.824219 170.71875 49.289063 171.820313 49.570313 C 172.925781 49.855469 174.078125 49.996094 175.273438 49.988281 C 176.492188 49.988281 177.65625 49.8125 178.769531 49.457031 C 179.878906 49.097656 180.867188 48.566406 181.738281 47.863281 C 182.609375 47.15625 183.308594 46.277344 183.8125 45.21875 C 184.320313 44.164063 184.574219 42.925781 184.585938 41.523438 C 184.566406 40.3125 184.335938 39.269531 183.886719 38.40625 C 183.4375 37.535156 182.84375 36.8125 182.113281 36.230469 C 181.371094 35.644531 180.574219 35.179688 179.714844 34.8125 C 178.851563 34.449219 178.003906 34.164063 177.164063 33.960938 C 176.882813 33.910156 176.542969 33.816406 176.144531 33.675781 C 175.746094 33.542969 175.367188 33.359375 174.984375 33.144531 C 174.601563 32.921875 174.285156 32.65625 174.054688 32.355469 C 173.8125 32.050781 173.707031 31.703125 173.730469 31.320313 C 173.796875 30.648438 174.011719 30.152344 174.378906 29.828125 C 174.734375 29.496094 175.183594 29.304688 175.714844 29.253906 C 176.246094 29.195313 176.792969 29.238281 177.375 29.378906 C 177.953125 29.519531 178.503906 29.71875 179.007813 29.976563 C 179.523438 30.234375 179.9375 30.515625 180.253906 30.824219 L 183.6875 26.09375 C 182.800781 25.390625 181.871094 24.832031 180.90625 24.433594 C 179.9375 24.035156 178.992188 23.761719 178.054688 23.605469 C 177.125 23.449219 176.261719 23.382813 175.472656 23.40625 C 173.929688 23.441406 172.578125 23.722656 171.414063 24.234375 C 170.253906 24.757813 169.292969 25.457031 168.542969 26.308594 C 167.796875 27.171875 167.265625 28.125 166.960938 29.179688 C 166.652344 30.226563 166.578125 31.296875 166.734375 32.382813 C 166.902344 33.476563 167.308594 34.507813 167.972656 35.484375 C 168.628906 36.464844 169.550781 37.320313 170.734375 38.039063 C 171.921875 38.753906 173.382813 39.269531 175.125 39.582031 C 175.90625 39.707031 176.511719 39.929688 176.957031 40.253906 C 177.398438 40.585938 177.671875 40.976563 177.78125 41.433594 C 177.886719 41.882813 177.828125 42.363281 177.613281 42.867188 C 177.382813 43.390625 176.957031 43.722656 176.359375 43.882813 C 175.765625 44.039063 175.066406 44.039063 174.261719 43.863281 C 173.457031 43.691406 172.617188 43.375 171.757813 42.910156 C 170.894531 42.445313 170.070313 41.847656 169.300781 41.125 L 166.015625 45.605469 "/>
<path style=" stroke:none;fill-rule:nonzero;fill:rgb(100%,100%,100%);fill-opacity:1;" d="M 68.65625 29.828125 C 69.207031 29.828125 69.726563 29.925781 70.242188 30.117188 C 70.757813 30.316406 71.179688 30.597656 71.519531 30.980469 C 71.859375 31.351563 72.035156 31.820313 72.042969 32.367188 L 72.042969 49.488281 L 78.964844 49.488281 L 78.964844 32.367188 C 78.945313 30.832031 78.65625 29.496094 78.074219 28.351563 C 77.496094 27.207031 76.714844 26.253906 75.734375 25.480469 C 74.757813 24.71875 73.652344 24.144531 72.433594 23.753906 C 71.214844 23.371094 69.953125 23.164063 68.65625 23.15625 C 67.347656 23.164063 66.085938 23.371094 64.855469 23.753906 C 63.628906 24.144531 62.523438 24.71875 61.539063 25.480469 C 60.550781 26.253906 59.769531 27.207031 59.191406 28.351563 C 58.609375 29.496094 58.320313 30.832031 58.300781 32.367188 L 58.300781 49.488281 L 65.222656 49.488281 L 65.222656 32.367188 C 65.230469 31.820313 65.414063 31.351563 65.746094 30.980469 C 66.085938 30.597656 66.515625 30.316406 67.039063 30.117188 C 67.554688 29.925781 68.101563 29.828125 68.65625 29.828125 "/>
<path style=" stroke:none;fill-rule:nonzero;fill:rgb(100%,100%,100%);fill-opacity:1;" d="M 91.980469 29.828125 C 92.53125 29.828125 93.050781 29.925781 93.566406 30.117188 C 94.082031 30.316406 94.503906 30.597656 94.84375 30.980469 C 95.183594 31.351563 95.359375 31.820313 95.367188 32.367188 L 95.367188 49.488281 L 102.289063 49.488281 L 102.289063 32.367188 C 102.269531 30.832031 101.980469 29.496094 101.398438 28.351563 C 100.820313 27.207031 100.039063 26.253906 99.058594 25.480469 C 98.082031 24.71875 96.976563 24.144531 95.757813 23.753906 C 94.539063 23.371094 93.277344 23.164063 91.980469 23.15625 C 90.671875 23.164063 89.410156 23.371094 88.179688 23.753906 C 86.953125 24.144531 85.851563 24.71875 84.863281 25.480469 C 83.875 26.253906 83.09375 27.207031 82.515625 28.351563 C 81.933594 29.496094 81.644531 30.832031 81.625 32.367188 L 81.625 49.488281 L 88.546875 49.488281 L 88.546875 32.367188 C 88.554688 31.820313 88.738281 31.351563 89.070313 30.980469 C 89.410156 30.597656 89.839844 30.316406 90.363281 30.117188 C 90.878906 29.925781 91.425781 29.828125 91.980469 29.828125 "/>
<g clip-path="url(#clip3)" clip-rule="nonzero">
<g clip-path="url(#clip4)" clip-rule="nonzero">
<path style=" stroke:none;fill-rule:nonzero;fill:url(#linear1);" d="M 199.371094 68 L 0 68 L 0 0.414063 L 199.371094 0.414063 Z M 199.371094 68 "/>
</g>
</g>
<path style=" stroke:none;fill-rule:nonzero;fill:rgb(100%,100%,100%);fill-opacity:1;" d="M 29.128906 40.777344 C 28.878906 41.472656 28.53125 42.039063 28.074219 42.460938 C 27.625 42.894531 27.117188 43.199219 26.5625 43.382813 C 26.007813 43.566406 25.445313 43.640625 24.878906 43.597656 C 24.304688 43.558594 23.792969 43.417969 23.308594 43.167969 C 22.839844 42.917969 22.449219 42.585938 22.15625 42.15625 C 21.867188 41.730469 21.71875 41.21875 21.710938 40.628906 L 21.710938 32.515625 C 21.71875 31.941406 21.867188 31.445313 22.164063 31.03125 C 22.464844 30.625 22.855469 30.292969 23.335938 30.058594 C 23.824219 29.820313 24.347656 29.6875 24.910156 29.636719 C 25.476563 29.59375 26.039063 29.660156 26.589844 29.828125 C 27.128906 29.992188 27.617188 30.273438 28.039063 30.664063 C 28.464844 31.0625 28.777344 31.578125 28.976563 32.214844 L 34.902344 30.375 C 34.554688 29.0625 34.03125 27.953125 33.328125 27.054688 C 32.628906 26.160156 31.816406 25.445313 30.902344 24.90625 C 29.980469 24.375 29.027344 23.988281 28.03125 23.753906 C 27.035156 23.515625 26.074219 23.398438 25.144531 23.40625 C 24.117188 23.40625 23.09375 23.53125 22.097656 23.769531 C 21.101563 24.011719 20.164063 24.375 19.285156 24.867188 C 18.40625 25.355469 17.625 25.960938 16.953125 26.699219 C 16.28125 27.429688 15.761719 28.285156 15.378906 29.261719 C 14.988281 30.242188 14.796875 31.335938 14.789063 32.566406 L 14.789063 40.679688 C 14.796875 41.90625 14.988281 43 15.378906 43.980469 C 15.761719 44.953125 16.28125 45.804688 16.953125 46.527344 C 17.625 47.257813 18.40625 47.863281 19.285156 48.34375 C 20.164063 48.824219 21.101563 49.191406 22.097656 49.429688 C 23.09375 49.671875 24.117188 49.789063 25.144531 49.789063 C 26.074219 49.789063 27.035156 49.671875 28.015625 49.421875 C 29.003906 49.183594 29.957031 48.785156 30.878906 48.234375 C 31.808594 47.6875 32.644531 46.96875 33.394531 46.070313 C 34.140625 45.175781 34.746094 44.070313 35.203125 42.769531 L 29.128906 40.777344 "/>
<path style=" stroke:none;fill-rule:nonzero;fill:rgb(100%,100%,100%);fill-opacity:1;" d="M 45.554688 43.664063 C 45.011719 43.660156 44.46875 43.535156 43.964844 43.308594 C 43.441406 43.078125 43.007813 42.742188 42.667969 42.328125 C 42.335938 41.914063 42.15625 41.425781 42.148438 40.878906 L 42.148438 32.367188 C 42.15625 31.820313 42.335938 31.351563 42.667969 30.980469 C 43.007813 30.597656 43.441406 30.316406 43.964844 30.117188 C 44.46875 29.929688 45.011719 29.832031 45.554688 29.828125 L 45.554688 23.15625 C 44.253906 23.167969 43 23.375 41.78125 23.753906 C 40.554688 24.144531 39.449219 24.71875 38.460938 25.480469 C 37.472656 26.25 36.695313 27.207031 36.113281 28.351563 C 35.53125 29.496094 35.242188 30.832031 35.226563 32.367188 L 35.226563 40.726563 C 35.242188 42.28125 35.53125 43.632813 36.113281 44.777344 C 36.695313 45.921875 37.472656 46.867188 38.460938 47.621094 C 39.449219 48.378906 40.554688 48.933594 41.78125 49.304688 C 43 49.675781 44.253906 49.875 45.554688 49.886719 Z M 45.582031 29.828125 C 46.128906 29.828125 46.652344 29.925781 47.167969 30.117188 C 47.679688 30.316406 48.105469 30.597656 48.445313 30.980469 C 48.785156 31.351563 48.957031 31.820313 48.96875 32.367188 L 48.96875 40.878906 C 48.957031 41.425781 48.785156 41.914063 48.445313 42.328125 C 48.105469 42.742188 47.679688 43.078125 47.167969 43.308594 C 46.652344 43.539063 46.128906 43.664063 45.582031 43.664063 L 45.554688 43.664063 L 45.554688 49.886719 L 45.582031 49.886719 C 46.875 49.878906 48.136719 49.679688 49.355469 49.304688 C 50.578125 48.933594 51.679688 48.378906 52.660156 47.621094 C 53.640625 46.867188 54.417969 45.921875 55 44.777344 C 55.582031 43.632813 55.871094 42.28125 55.886719 40.726563 L 55.886719 32.367188 C 55.871094 30.832031 55.582031 29.496094 55 28.351563 C 54.417969 27.207031 53.640625 26.25 52.660156 25.480469 C 51.679688 24.71875 50.578125 24.144531 49.355469 23.753906 C 48.136719 23.371094 46.875 23.164063 45.582031 23.15625 L 45.554688 23.15625 L 45.554688 29.828125 L 45.582031 29.828125 "/>
<path style=" stroke:none;fill-rule:nonzero;fill:rgb(100%,100%,100%);fill-opacity:1;" d="M 111.972656 54.78125 L 111.972656 48.84375 C 112.917969 49.273438 113.914063 49.539063 114.949219 49.65625 C 115.101563 49.671875 115.253906 49.683594 115.40625 49.695313 L 115.40625 44.316406 C 115.355469 44.324219 115.308594 44.332031 115.257813 44.335938 C 114.667969 44.410156 114.085938 44.410156 113.515625 44.320313 C 112.941406 44.230469 112.429688 44.0625 111.972656 43.816406 L 111.972656 28.832031 C 112.460938 28.589844 113 28.433594 113.597656 28.34375 C 114.1875 28.257813 114.792969 28.257813 115.390625 28.335938 L 115.40625 28.335938 L 115.40625 23.160156 C 115.289063 23.15625 115.175781 23.15625 115.058594 23.15625 C 113.972656 23.15625 112.859375 23.238281 111.707031 23.398438 C 110.5625 23.554688 109.425781 23.769531 108.285156 24.0625 C 107.148438 24.351563 106.054688 24.699219 105 25.097656 L 105 56.953125 C 107.507813 56.363281 109.84375 55.632813 111.972656 54.78125 Z M 115.40625 49.695313 C 116.296875 49.757813 117.183594 49.703125 118.070313 49.546875 C 119.105469 49.355469 120.085938 49.03125 121.015625 48.566406 C 121.945313 48.101563 122.765625 47.507813 123.480469 46.777344 C 124.203125 46.046875 124.757813 45.199219 125.164063 44.230469 C 125.570313 43.257813 125.769531 42.171875 125.761719 40.976563 L 125.761719 32.066406 C 125.628906 30.40625 125.257813 29.007813 124.640625 27.859375 C 124.027344 26.714844 123.238281 25.804688 122.261719 25.105469 C 121.28125 24.417969 120.179688 23.921875 118.949219 23.613281 C 117.824219 23.332031 116.648438 23.175781 115.40625 23.160156 L 115.40625 28.335938 C 116.007813 28.417969 116.5625 28.585938 117.066406 28.832031 C 117.582031 29.082031 117.996094 29.421875 118.320313 29.851563 C 118.644531 30.28125 118.816406 30.804688 118.84375 31.417969 L 118.84375 41.324219 C 118.765625 41.921875 118.550781 42.429688 118.210938 42.851563 C 117.863281 43.265625 117.429688 43.605469 116.917969 43.847656 C 116.445313 44.074219 115.941406 44.234375 115.40625 44.316406 L 115.40625 49.695313 "/>
<path style=" stroke:none;fill-rule:nonzero;fill:rgb(100%,100%,100%);fill-opacity:1;" d="M 137.070313 23.324219 C 136.109375 23.351563 135.15625 23.484375 134.21875 23.722656 C 132.988281 24.027344 131.84375 24.519531 130.78125 25.199219 C 129.71875 25.871094 128.800781 26.730469 128.027344 27.785156 L 131.414063 30.921875 C 131.878906 30.414063 132.425781 29.984375 133.054688 29.644531 C 133.6875 29.304688 134.359375 29.054688 135.054688 28.914063 C 135.742188 28.777344 136.414063 28.75 137.070313 28.832031 Z M 136.589844 32.765625 C 134.996094 32.773438 133.601563 33.023438 132.40625 33.511719 C 131.203125 33.992188 130.210938 34.648438 129.421875 35.46875 C 128.625 36.289063 128.035156 37.21875 127.652344 38.246094 C 127.273438 39.269531 127.089844 40.332031 127.121094 41.425781 C 127.15625 42.519531 127.40625 43.582031 127.851563 44.601563 C 128.308594 45.632813 128.980469 46.550781 129.859375 47.382813 C 130.75 48.203125 131.84375 48.859375 133.164063 49.339844 C 134.300781 49.761719 135.605469 50.003906 137.070313 50.070313 L 137.070313 44.726563 C 136.453125 44.664063 135.921875 44.511719 135.460938 44.277344 C 134.855469 43.964844 134.398438 43.558594 134.085938 43.066406 C 133.761719 42.570313 133.59375 42.039063 133.570313 41.484375 C 133.535156 40.917969 133.660156 40.386719 133.9375 39.882813 C 134.210938 39.382813 134.640625 38.960938 135.222656 38.636719 C 135.722656 38.351563 136.335938 38.175781 137.070313 38.113281 L 137.070313 32.769531 C 136.90625 32.761719 136.75 32.761719 136.589844 32.765625 Z M 137.070313 50.070313 C 137.304688 50.078125 137.542969 50.085938 137.785156 50.085938 C 138.839844 50.085938 139.917969 50.003906 141.019531 49.84375 C 142.125 49.695313 143.230469 49.472656 144.324219 49.191406 C 145.417969 48.90625 146.472656 48.578125 147.492188 48.195313 L 147.492188 32.214844 C 147.484375 30.804688 147.21875 29.5625 146.695313 28.484375 C 146.175781 27.398438 145.460938 26.484375 144.5625 25.738281 C 143.667969 24.992188 142.648438 24.417969 141.511719 24.011719 C 140.367188 23.613281 139.171875 23.382813 137.925781 23.332031 C 137.640625 23.320313 137.355469 23.320313 137.070313 23.324219 L 137.070313 28.832031 L 137.121094 28.839844 C 137.792969 28.941406 138.40625 29.164063 138.953125 29.527344 C 139.503906 29.886719 139.941406 30.398438 140.265625 31.0625 C 140.597656 31.726563 140.765625 32.554688 140.773438 33.558594 C 140.140625 33.246094 139.453125 33.03125 138.722656 32.921875 C 138.15625 32.832031 137.605469 32.78125 137.070313 32.769531 L 137.070313 38.113281 C 137.1875 38.101563 137.3125 38.09375 137.4375 38.089844 C 138.042969 38.066406 138.625 38.097656 139.171875 38.179688 C 139.726563 38.265625 140.191406 38.390625 140.574219 38.539063 L 140.574219 44.410156 C 140.101563 44.535156 139.628906 44.628906 139.144531 44.675781 C 138.671875 44.734375 138.183594 44.761719 137.6875 44.761719 C 137.472656 44.757813 137.265625 44.746094 137.070313 44.726563 L 137.070313 50.070313 "/>
<path style=" stroke:none;fill-rule:nonzero;fill:rgb(100%,100%,100%);fill-opacity:1;" d="M 148.664063 45.605469 C 149.476563 46.675781 150.371094 47.539063 151.351563 48.179688 C 152.332031 48.824219 153.367188 49.289063 154.472656 49.570313 C 155.574219 49.855469 156.730469 49.996094 157.925781 49.988281 C 159.144531 49.988281 160.304688 49.8125 161.417969 49.457031 C 162.527344 49.097656 163.515625 48.566406 164.386719 47.863281 C 165.257813 47.15625 165.957031 46.277344 166.460938 45.21875 C 166.96875 44.164063 167.226563 42.925781 167.234375 41.523438 C 167.21875 40.3125 166.984375 39.269531 166.535156 38.40625 C 166.089844 37.535156 165.492188 36.8125 164.761719 36.230469 C 164.023438 35.644531 163.226563 35.179688 162.363281 34.8125 C 161.5 34.449219 160.652344 34.164063 159.816406 33.960938 C 159.535156 33.910156 159.191406 33.816406 158.796875 33.675781 C 158.394531 33.542969 158.015625 33.359375 157.632813 33.144531 C 157.25 32.921875 156.9375 32.65625 156.703125 32.355469 C 156.464844 32.050781 156.355469 31.703125 156.378906 31.320313 C 156.445313 30.648438 156.664063 30.152344 157.027344 29.828125 C 157.382813 29.496094 157.832031 29.304688 158.363281 29.253906 C 158.894531 29.195313 159.441406 29.238281 160.023438 29.378906 C 160.605469 29.519531 161.152344 29.71875 161.65625 29.976563 C 162.171875 30.234375 162.585938 30.515625 162.902344 30.824219 L 166.339844 26.09375 C 165.449219 25.390625 164.519531 24.832031 163.558594 24.433594 C 162.585938 24.035156 161.640625 23.761719 160.703125 23.605469 C 159.773438 23.449219 158.910156 23.382813 158.121094 23.40625 C 156.578125 23.441406 155.226563 23.722656 154.066406 24.234375 C 152.902344 24.757813 151.941406 25.457031 151.195313 26.308594 C 150.445313 27.171875 149.914063 28.125 149.609375 29.179688 C 149.300781 30.226563 149.226563 31.296875 149.386719 32.382813 C 149.550781 33.476563 149.957031 34.507813 150.621094 35.484375 C 151.277344 36.464844 152.199219 37.320313 153.386719 38.039063 C 154.570313 38.753906 156.03125 39.269531 157.773438 39.582031 C 158.554688 39.707031 159.160156 39.929688 159.609375 40.253906 C 160.046875 40.585938 160.320313 40.976563 160.429688 41.433594 C 160.539063 41.882813 160.480469 42.363281 160.265625 42.867188 C 160.03125 43.390625 159.609375 43.722656 159.011719 43.882813 C 158.414063 44.039063 157.714844 44.039063 156.910156 43.863281 C 156.105469 43.691406 155.269531 43.375 154.40625 42.910156 C 153.542969 42.445313 152.722656 41.847656 151.949219 41.125 L 148.664063 45.605469 "/>
<path style=" stroke:none;fill-rule:nonzero;fill:rgb(100%,100%,100%);fill-opacity:1;" d="M 166.015625 45.605469 C 166.828125 46.675781 167.722656 47.539063 168.703125 48.179688 C 169.679688 48.824219 170.71875 49.289063 171.820313 49.570313 C 172.925781 49.855469 174.078125 49.996094 175.273438 49.988281 C 176.492188 49.988281 177.65625 49.8125 178.769531 49.457031 C 179.878906 49.097656 180.867188 48.566406 181.738281 47.863281 C 182.609375 47.15625 183.308594 46.277344 183.8125 45.21875 C 184.320313 44.164063 184.574219 42.925781 184.585938 41.523438 C 184.566406 40.3125 184.335938 39.269531 183.886719 38.40625 C 183.4375 37.535156 182.84375 36.8125 182.113281 36.230469 C 181.371094 35.644531 180.574219 35.179688 179.714844 34.8125 C 178.851563 34.449219 178.003906 34.164063 177.164063 33.960938 C 176.882813 33.910156 176.542969 33.816406 176.144531 33.675781 C 175.746094 33.542969 175.367188 33.359375 174.984375 33.144531 C 174.601563 32.921875 174.285156 32.65625 174.054688 32.355469 C 173.8125 32.050781 173.707031 31.703125 173.730469 31.320313 C 173.796875 30.648438 174.011719 30.152344 174.378906 29.828125 C 174.734375 29.496094 175.183594 29.304688 175.714844 29.253906 C 176.246094 29.195313 176.792969 29.238281 177.375 29.378906 C 177.953125 29.519531 178.503906 29.71875 179.007813 29.976563 C 179.523438 30.234375 179.9375 30.515625 180.253906 30.824219 L 183.6875 26.09375 C 182.800781 25.390625 181.871094 24.832031 180.90625 24.433594 C 179.9375 24.035156 178.992188 23.761719 178.054688 23.605469 C 177.125 23.449219 176.261719 23.382813 175.472656 23.40625 C 173.929688 23.441406 172.578125 23.722656 171.414063 24.234375 C 170.253906 24.757813 169.292969 25.457031 168.542969 26.308594 C 167.796875 27.171875 167.265625 28.125 166.960938 29.179688 C 166.652344 30.226563 166.578125 31.296875 166.734375 32.382813 C 166.902344 33.476563 167.308594 34.507813 167.972656 35.484375 C 168.628906 36.464844 169.550781 37.320313 170.734375 38.039063 C 171.921875 38.753906 173.382813 39.269531 175.125 39.582031 C 175.90625 39.707031 176.511719 39.929688 176.957031 40.253906 C 177.398438 40.585938 177.671875 40.976563 177.78125 41.433594 C 177.886719 41.882813 177.828125 42.363281 177.613281 42.867188 C 177.382813 43.390625 176.957031 43.722656 176.359375 43.882813 C 175.765625 44.039063 175.066406 44.039063 174.261719 43.863281 C 173.457031 43.691406 172.617188 43.375 171.757813 42.910156 C 170.894531 42.445313 170.070313 41.847656 169.300781 41.125 L 166.015625 45.605469 "/>
<path style=" stroke:none;fill-rule:nonzero;fill:rgb(100%,100%,100%);fill-opacity:1;" d="M 68.65625 29.828125 C 69.207031 29.828125 69.726563 29.925781 70.242188 30.117188 C 70.757813 30.316406 71.179688 30.597656 71.519531 30.980469 C 71.859375 31.351563 72.035156 31.820313 72.042969 32.367188 L 72.042969 49.488281 L 78.964844 49.488281 L 78.964844 32.367188 C 78.945313 30.832031 78.65625 29.496094 78.074219 28.351563 C 77.496094 27.207031 76.714844 26.253906 75.734375 25.480469 C 74.757813 24.71875 73.652344 24.144531 72.433594 23.753906 C 71.214844 23.371094 69.953125 23.164063 68.65625 23.15625 C 67.347656 23.164063 66.085938 23.371094 64.855469 23.753906 C 63.628906 24.144531 62.523438 24.71875 61.539063 25.480469 C 60.550781 26.253906 59.769531 27.207031 59.191406 28.351563 C 58.609375 29.496094 58.320313 30.832031 58.300781 32.367188 L 58.300781 49.488281 L 65.222656 49.488281 L 65.222656 32.367188 C 65.230469 31.820313 65.414063 31.351563 65.746094 30.980469 C 66.085938 30.597656 66.515625 30.316406 67.039063 30.117188 C 67.554688 29.925781 68.101563 29.828125 68.65625 29.828125 "/>
<path style=" stroke:none;fill-rule:nonzero;fill:rgb(100%,100%,100%);fill-opacity:1;" d="M 91.980469 29.828125 C 92.53125 29.828125 93.050781 29.925781 93.566406 30.117188 C 94.082031 30.316406 94.503906 30.597656 94.84375 30.980469 C 95.183594 31.351563 95.359375 31.820313 95.367188 32.367188 L 95.367188 49.488281 L 102.289063 49.488281 L 102.289063 32.367188 C 102.269531 30.832031 101.980469 29.496094 101.398438 28.351563 C 100.820313 27.207031 100.039063 26.253906 99.058594 25.480469 C 98.082031 24.71875 96.976563 24.144531 95.757813 23.753906 C 94.539063 23.371094 93.277344 23.164063 91.980469 23.15625 C 90.671875 23.164063 89.410156 23.371094 88.179688 23.753906 C 86.953125 24.144531 85.851563 24.71875 84.863281 25.480469 C 83.875 26.253906 83.09375 27.207031 82.515625 28.351563 C 81.933594 29.496094 81.644531 30.832031 81.625 32.367188 L 81.625 49.488281 L 88.546875 49.488281 L 88.546875 32.367188 C 88.554688 31.820313 88.738281 31.351563 89.070313 30.980469 C 89.410156 30.597656 89.839844 30.316406 90.363281 30.117188 C 90.878906 29.925781 91.425781 29.828125 91.980469 29.828125 "/>
</g>
</svg>
